<svg xmlns="http://www.w3.org/2000/svg" fill="#fff" viewBox="0 0 302 106" class="h-8 w-auto" data-fc-idx="0"><g clip-path="url(#fruits-icon-white_svg__a)" style="fill: rgb(255, 255, 255) !important;"><path d="M144.335 55.75h-8.26v30.06h-12.62V55.75h-5.2v-6.26l5.38-3.23v-1.23c0-3.38.47-6.11 1.41-8.21s2.37-3.64 4.31-4.62 4.41-1.48 7.44-1.48c1.95 0 3.71.16 5.31.49 1.59.33 3.22.79 4.89 1.37l-2.78 8.51c-.7-.21-1.46-.39-2.27-.53s-1.69-.21-2.65-.21c-1.1 0-1.9.36-2.41 1.07s-.77 1.8-.79 3.25v1.41h8.26v9.67zM171.485 45.38c.63 0 1.31.05 2.04.14s1.34.18 1.83.25l-1.09 12.2c-.42-.12-.97-.21-1.65-.28s-1.51-.11-2.5-.11-2.02.12-3.04.37-1.95.67-2.79 1.28-1.52 1.46-2.02 2.57-.76 2.52-.76 4.25v19.76h-12.66V46.08h9.49l1.9 6.4h.6c.7-1.27 1.59-2.44 2.67-3.52a13.2 13.2 0 0 1 3.66-2.6c1.36-.65 2.8-.98 4.32-.98M215.675 46.08v39.73h-9.67l-1.51-4.92h-.74c-.8 1.29-1.78 2.35-2.95 3.18s-2.47 1.45-3.9 1.85-2.95.6-4.57.6c-2.58 0-4.87-.52-6.87-1.55s-3.57-2.62-4.71-4.78-1.71-4.9-1.71-8.23V46.08h12.62v22.15c0 2.65.38 4.66 1.12 6.03s1.96 2.06 3.62 2.06c1.76 0 3.12-.47 4.08-1.42s1.62-2.32 1.99-4.11.54-3.98.54-6.56V46.09h12.66zM228.655 30.22c1.9 0 3.5.42 4.82 1.25 1.31.83 1.97 2.37 1.97 4.62s-.66 3.77-1.97 4.64-2.92 1.3-4.82 1.3-3.52-.43-4.8-1.3-1.92-2.41-1.92-4.64.64-3.82 1.92-4.64q1.92-1.23 4.8-1.23m6.26 15.86v39.73h-12.62V46.08zM260.715 76.35c1.08 0 2.12-.12 3.13-.35s2.04-.55 3.09-.95v9.35c-1.34.61-2.81 1.11-4.43 1.51q-2.43.6-5.91.6c-2.51 0-4.69-.42-6.54-1.25s-3.29-2.24-4.32-4.22-1.55-4.69-1.55-8.14V55.71h-4.64v-5.45l5.8-3.9 3.27-8.33h8.26v8.05h9.53v9.63h-9.53V72.3c0 1.36.33 2.37 1 3.04s1.61 1 2.83 1zM301.725 73.75q0 3.87-1.71 6.75c-1.14 1.92-2.89 3.4-5.27 4.45s-5.43 1.56-9.16 1.56c-2.67 0-5.06-.15-7.15-.46s-4.2-.88-6.31-1.72V73.78a34.3 34.3 0 0 0 6.93 2.41c2.39.55 4.38.83 5.98.83s2.75-.2 3.48-.6 1.09-1 1.09-1.79q0-.885-.63-1.53c-.42-.43-1.21-.94-2.36-1.53s-2.81-1.36-4.99-2.32q-3.24-1.335-5.34-2.97c-1.4-1.09-2.46-2.38-3.16-3.88s-1.05-3.32-1.05-5.45c0-3.82 1.4-6.7 4.2-8.65s6.57-2.92 11.3-2.92c2.48 0 4.82.28 7.01.84s4.45 1.38 6.77 2.46l-3.41 8.58c-1.83-.87-3.66-1.57-5.48-2.11s-3.4-.81-4.71-.81c-1.17 0-2.06.16-2.65.47s-.9.79-.9 1.42c0 .49.19.94.56 1.35s1.11.88 2.2 1.41q1.635.795 4.8 2.16c2.18.94 4 1.94 5.45 3.01q2.175 1.605 3.36 3.87c.79 1.51 1.18 3.42 1.18 5.71zM27.345 105.74c-6.42 0-12.4-3.53-16.55-9.96-12.32-19.07-17.42-57.46 5.06-79.94s60.87-17.38 79.94-5.06c7.65 4.94 9.48 10.96 9.66 15.13.31 7-3.65 14.07-11.15 19.91-1.15.9-2.76 1.86-4.65 2.82.98 5.28.54 13.07-6.49 21.25-7.26 8.46-18.73 10.7-27.07 11.09-1.66.08-3.32.09-4.98.04-2.68 12.67-10.04 21.94-19.58 24.21-1.41.34-2.82.5-4.2.5zm-4.68-83.09c-18.64 18.64-14.07 51.98-3.78 67.9 2.81 4.36 6.52 6.25 10.43 5.31 4.73-1.13 9.94-6.41 12.17-15.86-6.7-1.23-12.39-3.45-15.27-6.22-4.96-4.78-5.75-11.48-1.91-16.3 3.38-4.24 10.52-6.5 18.22-1.47 6.84 4.47 8.81 11 9.32 15.4 1.24.03 2.5.02 3.79-.04 9.12-.43 16.29-3.18 20.22-7.75 3.11-3.62 4.64-7.34 4.55-11.08-4.12 1.45-8.25 2.55-11.28 2.87-.28.03-6.24.61-12.69-.14-12.5-1.46-16.71-6.85-18.04-11.11-1.48-4.76-.02-9.5 4.01-13.02 7.03-6.14 20.83-7.64 30.13-3.28 5.67 2.66 10.42 6.88 13.53 11.8.96-.52 1.76-1.02 2.33-1.45 4.82-3.75 7.61-8.2 7.45-11.89-.12-2.77-1.89-5.28-5.26-7.46-15.92-10.28-49.26-14.85-67.9 3.78zm10.98 40.13c-.83 0-1.45.28-1.8.71-.65.82-.25 2.1 1.06 3.36 1.05 1.01 4.34 2.42 8.94 3.4-.62-2.07-1.92-4.44-4.58-6.17-1.43-.93-2.67-1.3-3.62-1.3M60.445 35c-4.71 0-9.37 1.37-11.71 3.41-1.61 1.4-1.32 2.33-1.14 2.89.84 2.68 8.44 5.74 20.55 4.54 2.35-.25 5.62-1.15 8.9-2.29-2.13-2.85-5.13-5.33-8.6-6.95-2.37-1.11-5.19-1.59-7.99-1.59z" style="fill: rgb(255, 255, 255) !important;"/></g><defs style="fill: rgb(255, 255, 255) !important;"><clipPath id="fruits-icon-white_svg__a" style="fill: rgb(255, 255, 255) !important;"><path d="M.275.26h301.45v105.48H.275z" style="fill: rgb(255, 255, 255) !important;"/></clipPath></defs></svg>